<svg xmlns="http://www.w3.org/2000/svg" version="1.1" xmlns:xlink="http://www.w3.org/1999/xlink" xmlns:svgjs="http://svgjs.dev/svgjs" width="2000" height="1500" viewBox="0 0 2000 1500"><rect width="2000" height="1500" fill="#ffffff"></rect><g transform="matrix(0.75,0,0,0.75,249.78667664670684,-0.21332335329350371)"><svg viewBox="0 0 334 334" data-background-color="#ffffff" preserveAspectRatio="xMidYMid meet" height="2000" width="2000" xmlns="http://www.w3.org/2000/svg" xmlns:xlink="http://www.w3.org/1999/xlink"><g id="tight-bounds" transform="matrix(1,0,0,1,0.04749999999998522,0.04750000000001364)"><svg viewBox="0 0 333.90454557049503 333.90454557049503" height="333.90454557049503" width="333.90454557049503"><g><svg></svg></g><g><svg viewBox="0 0 333.90454557049503 333.90454557049503" height="333.90454557049503" width="333.90454557049503"><g><path d="M0 166.952c0-92.205 74.747-166.952 166.952-166.952 92.205 0 166.952 74.747 166.953 166.952 0 92.205-74.747 166.952-166.953 166.953-92.205 0-166.952-74.747-166.952-166.953zM166.952 316.63c82.665 0 149.677-67.013 149.678-149.678 0-82.665-67.013-149.677-149.678-149.677-82.665 0-149.677 67.013-149.677 149.677 0 82.665 67.013 149.677 149.677 149.678z" data-fill-palette-color="tertiary" fill="#ee3e38" stroke="transparent"></path><ellipse rx="160.27418187383762" ry="160.27418187383762" cx="166.95227278524752" cy="166.95227278524752" fill="#ee3e38" stroke="transparent" stroke-width="0" fill-opacity="1" data-fill-palette-color="tertiary"></ellipse></g><g transform="matrix(1,0,0,1,102.26866035104639,71.17305217166896)"><svg viewBox="0 0 129.36722486840225 191.55844122715712" height="191.55844122715712" width="129.36722486840225"><g><svg viewBox="0 0 129.36722486840225 191.55844122715712" height="191.55844122715712" width="129.36722486840225"><g><svg viewBox="0 0 129.36722486840225 191.55844122715712" height="191.55844122715712" width="129.36722486840225"><g id="textblocktransform"><svg viewBox="0 0 129.36722486840225 191.55844122715712" height="191.55844122715712" width="129.36722486840225" id="textblock"><g><svg viewBox="0 0 129.36722486840225 191.55844122715712" height="191.55844122715712" width="129.36722486840225"><g transform="matrix(1,0,0,1,0,0)"><svg width="129.36722486840225" viewBox="0.95 -36 27.25 40.35" height="191.55844122715712" data-palette-color="#ffffff"><path d="M6.5 4.35L6.5 4.35Q3.75 4.35 2.35 3.43 0.95 2.5 0.95 0.35L0.95 0.35Q0.95 0.2 1.2 0.2L1.2 0.2Q1.55 0.2 2.45 0.45 3.35 0.7 5.9 0.7L5.9 0.7Q10.2 0.7 13.85-0.28 17.5-1.25 20.18-2.95 22.85-4.65 24.33-6.78 25.8-8.9 25.8-11.15L25.8-11.15Q25.8-13.2 24.65-14.45 23.5-15.7 21.63-16.35 19.75-17 17.55-17.23 15.35-17.45 13.2-17.45L13.2-17.45Q12.25-17.45 11.28-17.43 10.3-17.4 9.45-17.4L9.45-17.4Q8.3-13.35 7.2-9.25 6.1-5.15 4.95-1.3L4.95-1.3Q3.7-1.3 2.85-2 2-2.7 2-3.7L2-3.7Q2-4.3 2.25-5.1 2.5-5.9 2.7-6.55L2.7-6.55Q3-7.55 3.75-9.9 4.5-12.25 5.58-15.4 6.65-18.55 7.95-22 9.25-25.45 10.63-28.75 12-32.05 13.3-34.6L13.3-34.6Q11.2-34.25 9.78-33.6 8.35-32.95 7.55-32.43 6.75-31.9 6.4-31.9L6.4-31.9Q6.15-31.9 5.78-32.13 5.4-32.35 5.1-32.68 4.8-33 4.8-33.25L4.8-33.25Q7.3-34.3 10.03-35.15 12.75-36 16.65-36L16.65-36Q18.3-36 20.3-35.73 22.3-35.45 24.1-34.63 25.9-33.8 27.05-32.23 28.2-30.65 28.2-28.05L28.2-28.05Q28.2-25.6 27.15-23.88 26.1-22.15 24.4-21.03 22.7-19.9 20.7-19.25 18.7-18.6 16.75-18.3L16.75-18.3Q20.45-18.1 22.73-17.25 25-16.4 26.18-15.23 27.35-14.05 27.75-12.75 28.15-11.45 28.15-10.25L28.15-10.25Q28.15-7.35 26.65-5 25.15-2.65 22.7-0.9 20.25 0.85 17.35 2.02 14.45 3.2 11.6 3.78 8.75 4.35 6.5 4.35ZM9.75-18.55L9.75-18.55Q12.5-18.65 15.23-19.18 17.95-19.7 20.2-20.85 22.45-22 23.83-23.85 25.2-25.7 25.2-28.45L25.2-28.45Q25.2-31.05 23.98-32.45 22.75-33.85 20.83-34.4 18.9-34.95 16.75-34.95L16.75-34.95Q16.5-34.95 16.28-34.95 16.05-34.95 15.8-34.9L15.8-34.9Q14-31.4 12.53-27.2 11.05-23 9.75-18.55Z" opacity="1" transform="matrix(1,0,0,1,0,0)" fill="#ffffff" class="wordmark-text-0" data-fill-palette-color="quaternary" id="text-0"></path></svg></g></svg></g></svg></g></svg></g></svg></g></svg></g></svg></g><defs></defs></svg><rect width="333.90454557049503" height="333.90454557049503" fill="none" stroke="none" visibility="hidden"></rect></g></svg></g></svg>